<svg width="364" height="68" viewBox="0 0 364 68" fill="none" xmlns="http://www.w3.org/2000/svg">
<path d="M22.1994 15.7483C17.2001 15.7483 13.6298 17.9829 11.9341 20.1319V16.5223H0.775906V59.4947H12.2017V34.2268C12.2017 28.5548 14.7903 25.2029 20.0573 25.2029C24.6991 25.2029 27.1988 27.6096 27.1988 34.3133V59.4956H38.5357V32.5951C38.5357 19.8751 31.2154 15.7501 22.2004 15.7501L22.1994 15.7483Z" fill="#E73A10"/>
<path d="M68.0801 15.7486C55.8504 15.7486 48.7987 22.4523 48.7987 35.3444V40.5011C48.7987 52.5336 55.1363 60.2681 68.0801 60.2681C81.0239 60.2681 87.3615 52.275 87.3615 40.5011V35.3444C87.3615 22.4523 80.4876 15.7486 68.0801 15.7486ZM76.0245 40.1569C76.0245 46.3452 74.3288 50.9856 68.0801 50.9856C61.8314 50.9856 60.1356 46.3443 60.1356 40.1569V35.6877C60.1356 28.8119 62.4565 25.0302 68.0801 25.0302C73.7036 25.0302 76.0245 28.8119 76.0245 35.6877V40.1569Z" fill="#E73A10"/>
<path d="M123.249 18.7574C120.75 16.6949 117.536 15.7498 113.698 15.7498C103.075 15.7498 96.0235 22.4535 96.0235 35.0014V40.8455C96.0235 52.2761 102.005 60.2693 113.698 60.2693C117.893 60.2693 120.928 59.0664 123.249 57.003V59.4953H134.586V0.192383L123.249 6.32154V18.7574ZM123.249 40.158C123.249 46.3464 121.731 50.9867 115.305 50.9867C108.878 50.9867 107.36 46.3455 107.36 40.158V35.6889C107.36 28.813 109.681 25.0314 115.305 25.0314C120.928 25.0314 123.249 28.4688 123.249 34.7428V40.1571V40.158Z" fill="#E73A10"/>
<path d="M162.787 15.7486C150.557 15.7486 143.505 22.4523 143.505 35.3444V40.5011C143.505 52.5336 149.843 60.2681 162.787 60.2681C175.73 60.2681 182.068 52.275 182.068 40.5011V35.3444C182.068 22.4523 175.194 15.7486 162.787 15.7486ZM170.731 40.1569C170.731 46.3452 169.035 50.9856 162.787 50.9856C156.538 50.9856 154.842 46.3443 154.842 40.1569V35.6877C154.842 28.8119 157.163 25.0302 162.787 25.0302C168.41 25.0302 170.731 28.8119 170.731 35.6877V40.1569Z" fill="#E73A10"/>
<path d="M206.529 7.06818H195.192V16.5219H189.478V25.8044H195.192V45.4858C195.192 56.5731 199.655 59.4952 210.457 59.4952H215.277V49.8694H211.617C207.422 49.8694 206.529 48.0646 206.529 43.7676V25.8053H215.277V16.5228H206.529V7.06909V7.06818Z" fill="#E73A10"/>
<path d="M22.1994 15.7483C17.2001 15.7483 13.6298 17.9829 11.9341 20.1319V16.5223H0.775906V59.4947H12.2017V34.2268C12.2017 28.5548 14.7903 25.2029 20.0573 25.2029C24.6991 25.2029 27.1988 27.6096 27.1988 34.3133V59.4956H38.5357V32.5951C38.5357 19.8751 31.2154 15.7501 22.2004 15.7501L22.1994 15.7483Z" fill="#956134"/>
<path d="M68.0801 15.7486C55.8504 15.7486 48.7987 22.4523 48.7987 35.3444V40.5011C48.7987 52.5336 55.1363 60.2681 68.0801 60.2681C81.0239 60.2681 87.3615 52.275 87.3615 40.5011V35.3444C87.3615 22.4523 80.4876 15.7486 68.0801 15.7486ZM76.0245 40.1569C76.0245 46.3452 74.3288 50.9856 68.0801 50.9856C61.8314 50.9856 60.1356 46.3443 60.1356 40.1569V35.6877C60.1356 28.8119 62.4565 25.0302 68.0801 25.0302C73.7036 25.0302 76.0245 28.8119 76.0245 35.6877V40.1569Z" fill="black"/>
<path d="M123.249 18.7574C120.75 16.6949 117.536 15.7498 113.698 15.7498C103.075 15.7498 96.0235 22.4535 96.0235 35.0014V40.8455C96.0235 52.2761 102.005 60.2693 113.698 60.2693C117.893 60.2693 120.928 59.0664 123.249 57.003V59.4953H134.586V0.192383L123.249 6.32154V18.7574ZM123.249 40.158C123.249 46.3464 121.731 50.9867 115.305 50.9867C108.878 50.9867 107.36 46.3455 107.36 40.158V35.6889C107.36 28.813 109.681 25.0314 115.305 25.0314C120.928 25.0314 123.249 28.4688 123.249 34.7428V40.1571V40.158Z" fill="black"/>
<path d="M162.787 15.7486C150.557 15.7486 143.505 22.4523 143.505 35.3444V40.5011C143.505 52.5336 149.843 60.2681 162.787 60.2681C175.73 60.2681 182.068 52.275 182.068 40.5011V35.3444C182.068 22.4523 175.194 15.7486 162.787 15.7486ZM170.731 40.1569C170.731 46.3452 169.035 50.9856 162.787 50.9856C156.538 50.9856 154.842 46.3443 154.842 40.1569V35.6877C154.842 28.8119 157.163 25.0302 162.787 25.0302C168.41 25.0302 170.731 28.8119 170.731 35.6877V40.1569Z" fill="black"/>
<path d="M215.277 49.8707H211.617C207.422 49.8707 206.529 48.0659 206.529 43.7688V25.8066H215.277V16.5241H206.529V7.07037H195.192V16.5241H189.478V25.8066H195.192V45.488C195.192 56.5753 199.655 59.4974 210.457 59.4974H216.773C216.773 56.1474 216.249 52.9148 215.277 49.8716V49.8707Z" fill="black"/>
<path d="M252.792 48.2308C252.923 48.3073 253.054 48.3848 253.183 48.4623C253.054 48.3839 252.923 48.3064 252.792 48.2308Z" fill="#956134"/>
<path d="M253.973 48.9502C254.067 49.0103 254.161 49.0704 254.256 49.1314C254.162 49.0704 254.067 49.0103 253.973 48.9502Z" fill="#956134"/>
<path d="M254.484 49.2803C254.569 49.3368 254.654 49.3942 254.739 49.4506C254.654 49.3933 254.569 49.3368 254.484 49.2803Z" fill="#956134"/>
<path d="M251.75 47.6442C251.867 47.7071 251.982 47.7699 252.098 47.8338C251.982 47.7699 251.866 47.7071 251.75 47.6442Z" fill="#956134"/>
<path d="M257.055 51.1578C257.115 51.2063 257.175 51.2548 257.234 51.3042C257.174 51.2557 257.115 51.2063 257.055 51.1578Z" fill="#956134"/>
<path d="M259.396 53.2148C258.903 52.7404 258.399 52.2833 257.883 51.8435C257.887 51.8462 257.891 51.8498 257.895 51.8526C255.776 50.0396 253.483 48.518 251.073 47.2896C249.377 49.6098 247.859 50.9848 243.128 50.9848C236.791 50.9848 234.826 46.6877 234.737 40.7571H260.179V35.8581C260.179 22.7948 254.376 15.7469 241.79 15.7469C230.185 15.7469 223.401 22.0208 223.401 34.9985V40.8427C223.401 51.93 229.829 60.2664 243.219 60.2664C251.101 60.2664 256.233 58.2786 259.375 53.2521L259.398 53.2139L259.396 53.2148ZM234.737 32.9369C235.184 28.038 237.326 25.0303 241.879 25.0303C246.163 25.0303 248.484 27.3505 248.753 32.9369H234.738H234.737Z" fill="black"/>
<path d="M255.624 50.0685C255.708 50.1286 255.791 50.1888 255.875 50.2507C255.792 50.1897 255.708 50.1296 255.624 50.0685Z" fill="#956134"/>
<path d="M253.77 48.8218C253.84 48.8653 253.908 48.9087 253.976 48.9531C253.908 48.9097 253.839 48.8653 253.77 48.8218Z" fill="#956134"/>
<path d="M257.227 51.2981C257.448 51.4786 257.668 51.6609 257.887 51.8478C257.669 51.6609 257.448 51.4786 257.227 51.2981Z" fill="#956134"/>
<path d="M255.224 49.7838C255.359 49.8776 255.492 49.9724 255.625 50.0681C255.491 49.9724 255.358 49.8776 255.224 49.7838Z" fill="#956134"/>
<path d="M253.184 48.4623C253.225 48.4872 253.267 48.5111 253.308 48.5369C253.267 48.5121 253.225 48.4872 253.184 48.4623Z" fill="#956134"/>
<path d="M254.256 49.1313C254.333 49.1815 254.411 49.2326 254.488 49.2837C254.411 49.2326 254.333 49.1824 254.256 49.1313Z" fill="#956134"/>
<path d="M255.875 50.2504C255.962 50.3142 256.048 50.3788 256.134 50.4435C256.048 50.3788 255.961 50.3142 255.875 50.2504Z" fill="#956134"/>
<path d="M254.735 49.4506C254.814 49.504 254.893 49.5575 254.972 49.6109C254.893 49.5566 254.814 49.504 254.735 49.4506Z" fill="#956134"/>
<path d="M251.586 47.5571C251.643 47.5875 251.699 47.618 251.756 47.6493C251.699 47.6189 251.643 47.5875 251.586 47.5571Z" fill="#956134"/>
<path d="M22.1994 15.7483C17.2001 15.7483 13.6298 17.9829 11.9341 20.1319V16.5223H0.775906V59.4947H12.2017V34.2268C12.2017 28.5548 14.7903 25.2029 20.0573 25.2029C24.6991 25.2029 27.1988 27.6096 27.1988 34.3133V59.4956H38.5357V32.5951C38.5357 19.8751 31.2154 15.7501 22.2004 15.7501L22.1994 15.7483Z" fill="black"/>
<path d="M283.684 25.9985C283.684 25.3467 285.118 25.3467 286.508 25.1294C287.16 25.0425 287.899 24.9121 288.594 24.9121C289.811 24.9121 289.724 25.564 289.811 26.5635C290.072 29.1709 290.55 31.7783 291.158 34.3423C291.289 34.9073 291.419 35.646 292.158 35.646C292.94 35.646 299.893 31.5611 301.023 30.8223C301.371 30.6485 301.762 30.3877 302.153 30.3877C302.718 30.3877 303.457 31.6914 303.717 32.126C304.065 32.691 304.978 34.1685 304.978 34.7769C304.978 35.2115 304.5 35.3418 304.152 35.4722C301.023 36.5152 296.373 38.8619 293.418 40.4698C291.115 41.73 287.421 43.8594 285.596 45.5977C284.466 46.6842 283.466 47.8575 283.466 49.5089C283.466 51.0733 284.987 52.1598 286.335 52.6378C288.16 53.2897 290.202 53.42 292.114 53.42C295.765 53.42 299.937 52.942 303.457 52.2901C303.587 52.2467 303.717 52.2467 303.848 52.2467C304.456 52.2467 304.5 54.0284 304.5 54.941V55.4625C304.5 56.5924 304.456 57.0704 303.587 57.2877C301.936 57.7223 293.722 57.983 291.636 57.983C288.42 57.983 285.596 57.8092 282.728 56.1144C280.294 54.7237 278.73 52.2901 278.73 49.422C278.73 44.6851 282.641 41.5997 286.248 39.253C286.682 38.9488 286.986 38.6446 286.986 38.1231C286.986 37.7754 286.943 37.6016 286.813 37.3409C286.291 35.7764 285.074 31.1699 284.64 29.3882C284.379 28.3887 284.162 27.4326 283.814 26.52C283.771 26.3462 283.684 26.1724 283.684 25.9985ZM341.438 51.7687C341.438 50.6388 339.483 50.5953 338.657 50.5953C337.657 50.5953 335.528 50.943 335.528 52.2901C335.528 53.6808 337.614 54.1588 338.7 54.1588C340.352 54.1588 341.438 53.5504 341.438 51.7687ZM340.569 25.4336C341.308 25.4336 344.524 25.9985 345.393 26.2158C345.61 26.2593 345.827 26.3462 345.827 26.6069C345.827 26.9981 345.567 27.085 345.349 27.4761C345.089 27.9107 344.871 28.6494 344.871 30.5615V31.7783C344.871 32.3867 345.132 32.9082 345.784 32.9082C346.523 32.9082 349.347 32.0826 350.13 31.8218C350.303 31.7783 350.608 31.6914 350.782 31.6914C351.651 31.6914 351.955 34.69 351.955 35.3418C351.955 36.1675 351.651 36.4717 346.523 37.167C345.567 37.2974 345.045 37.4712 345.045 38.5577C345.045 39.4268 345.349 46.0758 345.393 47.2056C345.48 48.3355 345.914 48.4225 346.87 48.9005C348.609 49.7696 350.086 50.7257 351.564 51.9425C352.085 52.3771 352.694 52.8551 352.694 53.5939C352.694 54.5934 351.173 56.5924 350.173 56.5924C349.695 56.5924 349.304 56.2447 348.956 55.9405C348.478 55.4625 346.305 53.5504 345.74 53.5504C345.306 53.5504 345.176 53.8981 345.089 54.2457C344.306 57.027 341.395 57.8961 338.787 57.8961C335.311 57.8961 331.53 56.2447 331.53 52.2467C331.53 48.3355 334.963 46.7711 338.353 46.7711C338.918 46.7711 339.483 46.8145 340.048 46.9014H340.352C340.96 46.9014 341.221 46.5538 341.221 45.9888C341.221 44.9024 341.004 40.774 340.96 39.5137C340.917 39.0792 341.004 37.8624 339.917 37.8624C339.57 37.8624 336.484 38.0362 334.746 38.0362H334.181C333.094 38.0362 331.269 37.9927 330.878 37.6885C330.487 37.4278 330.444 34.9507 330.444 34.3858C330.444 33.8208 330.487 33.2994 331.139 33.2994C331.66 33.2994 335.528 33.7339 337.788 33.7339H338.483C339.526 33.7339 340.526 33.647 340.526 32.691C340.526 31.7783 340.178 27.563 340.004 26.4766C340.004 26.3462 339.961 26.1724 339.961 26.042C339.961 25.6509 340.135 25.4336 340.569 25.4336ZM326.75 26.8677C327.315 27.1284 327.836 27.3892 328.097 27.4761C328.445 27.6065 329.227 27.9107 329.227 28.3452C329.227 28.606 329.053 28.6929 328.836 28.7798C327.836 29.2578 327.575 29.6489 327.054 30.9961C325.576 34.6465 324.664 40.2525 324.664 44.2071C324.664 44.9024 324.794 49.0309 325.62 49.0309C325.924 49.0309 326.141 48.4659 326.576 47.4664C326.793 46.9884 327.228 45.5543 327.749 45.5543C328.227 45.5543 329.618 46.4234 329.618 46.9449C329.618 47.5533 327.488 52.3336 327.488 54.8541C327.488 55.5494 327.575 56.2447 327.575 56.9401C327.575 58.6349 324.49 59.1564 324.273 59.1564C323.534 59.1564 323.186 58.3307 322.882 57.7223C320.926 53.5504 320.318 48.9439 320.318 44.3375C320.318 40.1221 320.84 36.2544 321.839 32.1695C322.317 30.2573 322.925 28.3887 323.404 26.4766C323.447 26.1724 323.577 25.7378 323.968 25.7378C324.273 25.7378 325.62 26.3462 326.75 26.8677Z" fill="black"/>
</svg>
