<svg width="221" height="336" viewBox="0 0 221 336" fill="none" xmlns="http://www.w3.org/2000/svg">
<path d="M184.966 93.5985C177.638 109.239 161.308 120.124 142.338 120.124H95.5882V75.0839C95.5882 56.8077 106.886 41.0747 123.121 34.0141C114.416 31.4328 105.17 30.0435 95.5882 30.0435C43.9517 30.0435 2.09204 70.3726 2.09204 120.124C2.09204 169.876 43.9517 210.205 95.5882 210.205C147.225 210.205 189.084 169.876 189.084 120.124C189.084 110.892 187.646 101.985 184.966 93.5985Z" fill="#E73A10"/>
<path d="M123.121 93.5984C123.121 93.5984 122.091 46.1388 151.696 18.5989C157.86 12.864 166.772 6.11493 179.278 2.71338C194.473 -1.41617 217.94 -1.48293 220.035 7.83478C222.556 19.0345 180.76 20.3601 185.023 33.4291C189.009 45.6524 209.496 24.6168 212.492 38.9065C214.086 46.5139 185.755 59.7164 185.755 59.7164L123.121 93.5984Z" fill="#E73A10"/>
<path d="M50.8369 258.142C41.9796 258.142 36.8726 263.001 36.8726 272.344V276.081C36.8726 284.801 41.4625 290.406 50.8369 290.406C60.2113 290.406 64.8012 284.614 64.8012 276.081V272.344C64.8012 263.001 59.8229 258.142 50.8369 258.142ZM56.5906 275.832C56.5906 280.316 55.3624 283.679 50.8369 283.679C46.3113 283.679 45.0832 280.316 45.0832 275.832V272.593C45.0832 267.61 46.7641 264.869 50.8369 264.869C54.9097 264.869 56.5906 267.61 56.5906 272.593V275.832Z" fill="black"/>
<path d="M90.7892 260.323C88.9789 258.828 86.6514 258.143 83.8718 258.143C76.1783 258.143 71.0712 263.002 71.0712 272.095V276.331C71.0712 284.614 75.4029 290.407 83.8718 290.407C86.9103 290.407 89.1083 289.535 90.7892 288.04V289.846H98.9999V246.869L90.7892 251.31V260.323ZM90.7892 275.832C90.7892 280.317 89.6899 283.68 85.0355 283.68C80.3812 283.68 79.2818 280.316 79.2818 275.832V272.593C79.2818 267.61 80.9627 264.87 85.0355 264.87C89.1083 264.87 90.7892 267.361 90.7892 271.908V275.832V275.832Z" fill="black"/>
<path d="M119.43 258.142C110.573 258.142 105.465 263.001 105.465 272.344V276.081C105.465 284.801 110.055 290.406 119.43 290.406C128.804 290.406 133.394 284.614 133.394 276.081V272.344C133.394 263.001 128.416 258.142 119.43 258.142ZM125.183 275.832C125.183 280.316 123.955 283.679 119.43 283.679C114.904 283.679 113.676 280.316 113.676 275.832V272.593C113.676 267.61 115.357 264.869 119.43 264.869C123.503 264.869 125.183 267.61 125.183 272.593V275.832Z" fill="black"/>
<path d="M157.442 282.87H154.791C151.753 282.87 151.106 281.562 151.106 278.448V265.43H157.442V258.703H151.106V251.852H142.896V258.703H138.758V265.43H142.896V279.694C142.896 287.729 146.128 289.847 153.951 289.847H158.526C158.526 287.419 158.146 285.076 157.442 282.871V282.87Z" fill="black"/>
<path d="M189.395 285.295C189.038 284.952 188.673 284.62 188.299 284.302C188.302 284.304 188.305 284.306 188.308 284.308C186.773 282.994 185.113 281.892 183.367 281.001C182.139 282.683 181.039 283.679 177.613 283.679C173.023 283.679 171.601 280.565 171.536 276.267H189.962V272.717C189.962 263.25 185.759 258.142 176.644 258.142C168.239 258.142 163.326 262.689 163.326 272.094V276.329C163.326 284.364 167.981 290.406 177.679 290.406C183.387 290.406 187.104 288.965 189.379 285.323L189.397 285.295L189.395 285.295ZM171.536 270.6C171.86 267.049 173.411 264.87 176.708 264.87C179.811 264.87 181.492 266.551 181.687 270.6H171.537H171.536Z" fill="black"/>
<path d="M17.6078 258.142C13.9871 258.142 11.4014 259.762 10.1733 261.319V258.703H2.09207V289.846H10.3671V271.534C10.3671 267.424 12.2419 264.994 16.0564 264.994C19.4182 264.994 21.2286 266.739 21.2286 271.597V289.847H29.4392V270.352C29.4392 261.133 24.1376 258.144 17.6085 258.144L17.6078 258.142Z" fill="black"/>
<path d="M184.615 281.683C184.71 281.738 184.804 281.794 184.898 281.85C184.804 281.794 184.71 281.738 184.615 281.683Z" fill="#956134"/>
<path d="M185.468 282.204C185.536 282.247 185.604 282.291 185.673 282.335C185.605 282.291 185.536 282.247 185.468 282.204Z" fill="#956134"/>
<path d="M185.837 282.443C185.899 282.484 185.961 282.526 186.022 282.567C185.961 282.525 185.899 282.484 185.837 282.443Z" fill="#956134"/>
<path d="M183.857 281.258C183.941 281.304 184.025 281.349 184.108 281.395C184.025 281.349 183.94 281.304 183.857 281.258Z" fill="#956134"/>
<path d="M187.7 283.804C187.742 283.838 187.783 283.871 187.824 283.905C187.783 283.872 187.742 283.838 187.7 283.804Z" fill="#956134"/>
<path d="M186.661 283.014C186.722 283.058 186.783 283.101 186.843 283.146C186.783 283.102 186.722 283.058 186.661 283.014Z" fill="#956134"/>
<path d="M185.321 282.111C185.37 282.142 185.418 282.172 185.467 282.204C185.418 282.173 185.369 282.142 185.321 282.111Z" fill="#956134"/>
<path d="M187.825 283.906C187.985 284.036 188.143 284.167 188.3 284.301C188.143 284.167 187.985 284.036 187.825 283.906Z" fill="#956134"/>
<path d="M186.371 282.808C186.468 282.876 186.565 282.945 186.661 283.014C186.564 282.945 186.468 282.876 186.371 282.808Z" fill="#956134"/>
<path d="M184.898 281.851C184.927 281.869 184.958 281.886 184.987 281.904C184.958 281.886 184.927 281.869 184.898 281.851Z" fill="#956134"/>
<path d="M185.672 282.336C185.727 282.371 185.782 282.408 185.837 282.444C185.782 282.408 185.727 282.372 185.672 282.336Z" fill="#956134"/>
<path d="M186.844 283.146C186.907 283.192 186.97 283.239 187.032 283.286C186.97 283.239 186.907 283.192 186.844 283.146Z" fill="#956134"/>
<path d="M186.021 282.567C186.077 282.606 186.134 282.644 186.19 282.682C186.134 282.643 186.077 282.606 186.021 282.567Z" fill="#956134"/>
<path d="M183.738 281.195C183.778 281.216 183.816 281.237 183.856 281.258C183.816 281.237 183.778 281.216 183.738 281.195Z" fill="#956134"/>
<path d="M9.40256 329.611H17.4413C17.8894 329.558 18.1266 329.321 18.1793 328.873V326.396C18.1266 325.921 17.8894 325.71 17.4413 325.658H9.40256C8.9545 325.71 8.71729 325.921 8.66457 326.396V328.873C8.71729 329.321 8.9545 329.558 9.40256 329.611ZM17.5204 331.957H9.32349C8.90178 331.957 8.71729 332.115 8.71729 332.537V332.8C8.71729 333.512 8.32194 333.486 7.29403 333.486C6.29248 333.486 5.92349 333.512 5.92349 332.827C5.92349 332.721 5.9762 331.219 5.9762 330.903V326.185C5.9762 325.658 5.92349 325.13 5.92349 324.63C5.92349 323.391 6.66147 323.154 7.76845 323.154C8.40101 323.154 9.05992 323.206 9.71884 323.206H17.125C17.784 323.206 18.4429 323.154 19.1018 323.154C20.1824 323.154 20.9204 323.391 20.9204 324.603C20.9204 325.13 20.894 325.658 20.894 326.185V330.955C20.894 331.588 20.9468 332.431 20.9468 332.853C20.9468 333.538 20.5778 333.538 19.5499 333.538C18.4956 333.538 18.1266 333.538 18.1266 332.879V332.537C18.1266 332.168 17.9948 331.957 17.5204 331.957ZM13.8568 313.507C13.7514 313.402 13.646 313.27 13.4351 313.27C13.2506 313.27 13.1452 313.375 13.0134 313.507C11.7219 315.141 10.4041 316.459 8.92814 317.909C8.84907 317.988 8.82271 318.041 8.82271 318.146C8.82271 318.33 8.98085 318.41 9.13899 318.41C9.74519 318.436 10.3514 318.462 10.984 318.462H15.8599C17.5731 318.462 17.9948 318.489 17.9948 318.093C17.9948 317.856 17.7049 317.619 17.3359 317.276C17.2305 317.197 17.1514 317.118 17.046 317.039C15.939 316.037 14.7793 314.72 13.8568 313.507ZM7.90023 319.78V319.49C7.90023 319.332 7.82116 319.174 7.63666 319.174C7.53124 319.174 7.47853 319.2 7.42581 319.253C6.79325 319.78 4.02581 321.941 3.39325 321.941C2.83976 321.941 1.73278 320.65 1.73278 320.096C1.73278 319.78 2.2072 319.569 2.44441 319.437C5.31728 317.83 8.00566 315.616 10.0615 313.086C10.7467 312.268 11.6956 311.003 12.1964 310.055C12.2754 309.87 12.3809 309.686 12.6181 309.686C12.9607 309.686 14.7266 310.134 15.1747 310.239C15.3855 310.292 15.7018 310.371 15.7018 310.634C15.7018 310.819 15.5436 310.951 15.3855 311.003C15.3064 311.056 15.2537 311.109 15.2537 311.188C15.2537 311.241 15.2801 311.267 15.3064 311.32C17.6522 314.772 21.0522 317.224 24.663 319.279C25.1902 319.569 25.401 319.675 25.401 319.938C25.401 320.413 24.6103 322.02 24.1095 322.02C23.5297 322.02 20.1561 319.596 19.5235 319.095C19.4181 319.016 19.339 318.963 19.2072 318.963C18.97 318.963 18.9436 319.2 18.9436 319.385V319.886C18.9436 320.492 18.9173 320.94 18.4165 320.94C17.5731 320.94 16.7033 320.887 15.8599 320.887H10.984C10.1142 320.887 9.27077 320.94 8.42736 320.94C7.87387 320.94 7.90023 320.36 7.90023 319.78ZM45.9855 317.935H39.8181C38.8956 317.935 37.8413 318.014 37.1824 318.014C36.6289 318.014 36.6553 317.592 36.6553 316.749C36.6553 315.879 36.6553 315.51 37.1824 315.51C37.9204 315.51 38.922 315.563 39.8181 315.563H45.9855C46.8817 315.563 47.9096 315.51 48.6212 315.51C49.1747 315.51 49.1747 315.879 49.1747 316.749C49.1747 317.619 49.1747 318.014 48.6212 318.014C47.9886 318.014 46.908 317.935 45.9855 317.935ZM41.215 326.106H44.5886C45.0367 326.106 45.2739 325.842 45.3266 325.394V323.022C45.2739 322.574 45.0367 322.337 44.5886 322.284H41.215C40.7669 322.337 40.5297 322.574 40.477 323.022V325.394C40.5297 325.842 40.7669 326.106 41.215 326.106ZM47.8041 322.679V327.45C47.8041 327.924 47.8305 328.425 47.8305 328.926C47.8305 329.532 47.5669 329.558 46.5654 329.558C45.353 329.558 45.3266 329.506 45.3266 329.084C45.3266 328.557 45.1948 328.399 44.2723 328.399H41.5313C40.5297 328.399 40.5034 328.61 40.477 329.321C40.477 329.98 40.4243 330.033 39.1855 330.033C38.2367 330.033 37.9731 329.98 37.9731 329.321C37.9731 328.768 37.9995 328.214 37.9995 327.634V322.679C37.9995 322.152 37.9468 321.704 37.9468 321.23C37.9468 320.255 38.4475 319.965 39.37 319.965C40.0816 319.965 40.8196 320.017 41.5313 320.017H44.2723C44.984 320.017 45.6956 319.965 46.4072 319.965C47.3297 319.965 47.8568 320.202 47.8568 321.203C47.8568 321.704 47.8041 322.179 47.8041 322.679ZM50.0181 313.296H35.7064C35.1793 313.296 34.9685 313.507 34.9685 314.034V328.741C34.9685 330.059 35.0475 331.351 35.0475 332.668C35.0475 333.459 34.7313 333.486 33.5979 333.486C32.4909 333.486 32.1747 333.459 32.1747 332.668C32.1747 331.351 32.2537 330.059 32.2537 328.741V314.482C32.2537 313.665 32.201 312.875 32.201 312.058C32.201 311.003 32.6227 310.74 33.6243 310.74C34.3886 310.74 35.153 310.766 35.9437 310.766H49.7809C50.5716 310.766 51.3359 310.74 52.1003 310.74C53.0755 310.74 53.5235 310.977 53.5235 312.031C53.5235 312.848 53.4708 313.665 53.4708 314.482V328.188C53.4708 328.768 53.5235 329.374 53.5235 329.954C53.5235 331.061 53.4708 331.904 52.5747 332.668C51.6786 333.406 50.0972 333.459 48.9902 333.459C47.9623 333.459 47.2243 333.459 47.2243 331.482C47.2243 330.982 47.4351 330.692 47.9623 330.692C48.4894 330.692 49.122 330.797 49.6755 330.797C50.7297 330.797 50.7561 330.138 50.7561 329.084V314.034C50.7561 313.507 50.5452 313.296 50.0181 313.296ZM70.5235 326.185C70.0491 327.186 69.4165 328.451 68.8894 329.4C68.8367 329.479 68.8103 329.532 68.8103 329.637C68.8103 329.901 68.9948 329.98 69.2321 329.98C71.2879 329.875 73.37 329.717 75.4522 329.506C75.6631 329.479 75.8212 329.4 75.8212 329.137C75.8212 328.926 75.7158 328.82 75.584 328.689C75.215 328.241 74.4243 327.265 74.4243 327.107C74.4243 326.659 75.9793 325.921 76.4274 325.921C76.691 325.921 76.8755 326.079 77.0336 326.29C77.7189 327.107 78.5359 328.188 79.1421 329.058C79.4848 329.532 81.3034 332.089 81.3034 332.458C81.3034 332.958 79.6166 333.617 79.1948 333.617C78.8786 333.617 78.7468 333.406 78.3514 332.774C78.2724 332.642 78.1669 332.458 78.0352 332.273C77.8243 331.93 77.6135 331.72 77.1917 331.72C77.1127 331.72 77.06 331.746 77.0073 331.746C74.846 331.957 72.7111 332.168 70.5499 332.352C68.3359 332.537 66.5173 332.695 63.9871 332.879C63.7499 332.906 63.6444 332.985 63.4863 333.248C63.4072 333.354 63.3282 333.459 63.1964 333.459C62.9065 333.459 62.8274 333.09 62.6429 332.484C62.5638 332.273 62.2212 330.876 62.2212 330.665C62.2212 330.296 62.4057 330.375 63.539 330.296L64.7514 330.217C65.3049 330.191 65.5158 330.059 65.7793 329.585C66.5173 328.293 67.1235 327.002 67.7561 325.658C67.7824 325.579 67.8088 325.526 67.8088 325.42C67.8088 325.13 67.5716 325.051 67.308 325.025H65.2258C64.1452 325.025 63.0382 325.078 61.9576 325.078C61.3514 325.078 61.3778 324.603 61.3778 323.786C61.3778 322.917 61.3514 322.468 61.9576 322.468C63.0382 322.468 64.1452 322.521 65.2258 322.521H77.6662C78.7731 322.521 79.8538 322.468 80.9607 322.468C81.5669 322.468 81.5406 322.943 81.5406 323.786C81.5406 324.603 81.5669 325.078 80.9607 325.078C79.8538 325.078 78.7731 325.025 77.6662 325.025H71.1034C71.0243 325.025 70.9979 325.025 70.9979 325.078C70.9979 325.13 71.0507 325.13 71.1297 325.183C71.3406 325.289 71.446 325.341 71.446 325.499C71.446 325.737 71.2088 325.789 71.0507 325.816C70.7607 325.868 70.6553 325.921 70.5235 326.185ZM71.9731 313.375C71.8677 313.244 71.7096 313.165 71.5251 313.165C71.3406 313.165 71.2352 313.27 71.1034 313.402C69.8646 314.904 68.6522 316.143 67.1762 317.434C67.0972 317.487 67.0708 317.566 67.0708 317.645C67.0708 317.83 67.2026 317.882 67.3344 317.909C67.9142 317.909 68.4941 317.935 69.0739 317.935H73.8972C74.5034 317.935 75.1096 317.935 75.7421 317.909C75.8739 317.882 76.0321 317.83 76.0321 317.645C76.0321 317.566 75.9793 317.487 75.9266 317.434C74.6615 316.354 73.0274 314.641 71.9731 313.375ZM66.0693 319.2V318.989C66.0429 318.831 65.9902 318.647 65.7793 318.647C65.6739 318.647 65.6212 318.673 65.5421 318.726C64.8305 319.279 61.9049 321.388 61.1406 321.388C60.5607 321.388 59.7173 320.07 59.7173 319.517C59.7173 319.2 60.0863 319.068 60.4026 318.91C64.0925 316.96 68.2041 313.665 70.2863 310.002C70.3917 309.817 70.5499 309.58 70.7871 309.58C71.077 309.58 73.0801 310.081 73.5018 310.186C73.6863 310.239 73.8972 310.344 73.8972 310.555C73.8972 310.819 73.6072 310.898 73.3964 310.951C73.3173 310.977 73.2646 311.03 73.2646 311.109C73.2646 311.161 73.2646 311.188 73.291 311.214C75.7685 314.403 79.0104 317.013 82.6476 318.726C83.2538 319.016 83.5173 319.095 83.5173 319.411C83.5173 319.912 82.8057 321.441 82.2259 321.441C81.4615 321.441 78.1406 319.148 77.3762 318.594C77.3235 318.541 77.2708 318.515 77.1917 318.515C76.9809 318.515 76.9282 318.699 76.9018 318.858V319.411C76.9018 320.07 76.8491 320.413 76.3483 320.413C75.6894 320.413 74.6879 320.36 73.8972 320.36H69.0739C68.2569 320.36 67.3344 320.413 66.5964 320.413C66.0693 320.413 66.0693 319.938 66.0693 319.2ZM106.685 317.592H107.291C108.24 317.592 109.215 317.54 110.19 317.54C110.823 317.54 110.796 317.856 110.796 318.858C110.796 319.859 110.823 320.175 110.19 320.175C109.215 320.175 108.266 320.123 107.291 320.123H106.685C106.158 320.123 105.947 320.334 105.947 320.861V329.163C105.947 329.69 106.158 329.901 106.685 329.901H108.319C109.294 329.901 110.269 329.822 111.244 329.822C111.877 329.822 111.851 330.191 111.851 331.14C111.851 332.141 111.877 332.484 111.244 332.484C110.269 332.484 109.294 332.405 108.319 332.405H100.201C99.2522 332.405 98.277 332.484 97.3018 332.484C96.6693 332.484 96.6956 332.141 96.6956 331.14C96.6956 330.165 96.6693 329.822 97.3018 329.822C98.277 329.822 99.2522 329.901 100.201 329.901H102.52C103.021 329.901 103.232 329.69 103.232 329.163V320.861C103.232 320.334 103.021 320.123 102.52 320.123H102.283C101.334 320.123 100.359 320.175 99.384 320.175C98.7251 320.175 98.7778 319.859 98.7778 318.858C98.7778 317.856 98.7251 317.54 99.384 317.54C100.359 317.54 101.334 317.592 102.283 317.592H102.52C103.021 317.592 103.232 317.382 103.232 316.881V312.453C103.232 311.794 103.232 311.135 103.153 310.634C103.127 310.529 103.127 310.45 103.127 310.371C103.127 310.055 103.338 310.002 103.601 310.002C103.917 310.002 105.736 310.186 106.105 310.239C106.289 310.265 106.553 310.318 106.553 310.555C106.553 310.74 106.395 310.819 106.237 310.977C105.973 311.188 105.947 311.741 105.947 312.637V316.881C105.947 317.382 106.158 317.592 106.685 317.592ZM95.167 324.63C95.0879 324.577 95.0352 324.524 94.9297 324.524C94.7452 324.524 94.6925 324.709 94.6662 324.841V329.506C94.6662 330.586 94.7452 331.667 94.7452 332.774C94.7452 333.538 94.4817 333.565 93.3483 333.565C92.2414 333.565 91.9514 333.538 91.9514 332.774C91.9514 331.693 92.0305 330.586 92.0305 329.506V325.921C92.0042 325.763 91.9514 325.579 91.7406 325.579C91.6352 325.579 91.5825 325.631 91.5034 325.684C91.108 326.053 90.1856 327.002 89.6848 327.002C89.1576 327.002 88.1034 325.737 88.1034 325.341C88.1034 325.025 88.5251 324.761 88.7623 324.577C90.6863 323.127 93.1902 320.492 94.5608 318.489C94.6925 318.304 95.2724 317.461 95.2724 317.25C95.2724 317.065 94.9825 317.039 94.6662 317.039H91.6879C90.8445 317.039 89.8693 317.118 89.2104 317.118C88.6042 317.118 88.6569 316.749 88.6569 315.774C88.6569 314.799 88.6305 314.482 89.184 314.482C89.6848 314.482 90.66 314.561 91.3452 314.535C91.8724 314.535 92.0569 314.324 92.0569 313.797V312.163C92.0569 311.61 92.0569 311.03 91.9778 310.476C91.9514 310.397 91.9514 310.318 91.9514 310.239C91.9514 309.923 92.1623 309.87 92.3995 309.87C92.9003 309.87 94.2972 310.028 94.8243 310.081C95.0879 310.107 95.4569 310.134 95.4569 310.476C95.4569 310.713 95.246 310.819 95.0088 310.977C94.7452 311.161 94.7189 311.451 94.7189 312.189V313.797C94.7189 314.298 94.9034 314.535 95.4042 314.535C95.9313 314.561 96.4321 314.509 96.9328 314.509C98.0925 314.509 98.6724 315.853 98.6724 316.169C98.6724 317.092 96.4584 320.175 95.7995 320.992C95.6941 321.177 95.5887 321.309 95.5887 321.52C95.5887 321.73 95.7204 321.889 95.8522 322.047C96.9328 323.075 97.6708 323.734 98.8832 324.63C99.0677 324.761 99.3313 324.972 99.3313 325.21C99.3313 325.658 98.3297 326.87 97.7763 326.87C97.3282 326.87 95.5359 325.051 95.167 324.63ZM133.463 312.717C133.7 312.717 135.545 313.56 135.888 313.744C136.072 313.824 136.626 314.061 136.626 314.298C136.626 314.43 136.468 314.561 136.362 314.641C135.967 314.904 135.941 314.904 135.651 315.589C133.094 321.546 130.089 326.053 124.265 329.216C123.764 329.506 121.524 330.639 121.102 330.639C120.601 330.639 119.31 329.031 119.31 328.61C119.31 328.293 119.547 328.241 120.206 327.977C124.924 326.132 128.271 323.259 130.775 318.858C131.671 317.303 132.751 314.904 133.12 313.165C133.173 312.954 133.226 312.717 133.463 312.717ZM159.925 311.135C160.189 311.135 162.35 313.455 162.35 313.797C162.35 314.166 161.401 314.983 161.058 314.983C160.9 314.983 160.769 314.772 160.689 314.667C160.136 313.955 159.477 313.217 158.871 312.585C158.765 312.453 158.634 312.348 158.634 312.216C158.634 311.899 159.635 311.135 159.925 311.135ZM157.184 312.98C157.448 312.98 159.609 315.273 159.609 315.642C159.609 316.011 158.634 316.802 158.317 316.802C158.159 316.802 158.027 316.617 157.922 316.512C157.369 315.774 156.762 315.089 156.13 314.403C155.998 314.272 155.893 314.166 155.893 314.034C155.893 313.718 156.894 312.98 157.184 312.98ZM152.572 318.831C152.756 318.62 153.046 318.251 153.336 318.251C153.863 318.251 156.499 320.334 157.026 320.782C157.395 321.098 158.871 322.231 158.871 322.679C158.871 323.127 157.632 324.498 157.105 324.498C156.894 324.498 156.683 324.313 156.525 324.155C155.102 322.89 154.258 322.179 152.703 321.072C152.624 321.019 152.545 320.966 152.44 320.966C152.203 320.966 152.124 321.177 152.124 321.388V328.583C152.124 329.637 152.176 330.665 152.176 331.72C152.176 332.932 152.15 333.09 150.542 333.09C149.488 333.09 149.04 333.064 149.04 332.194C149.04 331.008 149.119 329.822 149.119 328.636V313.613C149.119 312.927 149.066 312.216 149.04 311.557C149.04 311.425 149.013 311.188 149.013 311.082C149.013 310.819 149.093 310.687 149.356 310.687C149.514 310.687 150.068 310.766 150.252 310.792C151.438 310.951 152.519 311.056 152.519 311.425C152.519 311.53 152.44 311.689 152.387 311.768C152.15 312.058 152.097 312.453 152.097 313.165C152.097 313.56 152.124 314.061 152.124 314.72V318.673C152.124 318.884 152.255 318.937 152.334 318.937C152.44 318.937 152.493 318.91 152.572 318.831ZM173.183 319.253H186.334C187.441 319.253 188.548 319.174 189.682 319.174C190.499 319.174 190.472 319.385 190.472 320.624C190.472 321.52 190.472 322.02 189.761 322.02C188.601 322.02 187.468 321.968 186.334 321.968H182.882C182.144 321.968 182.117 322.653 182.038 323.206C181.458 326.923 179.666 329.69 176.345 331.509C175.845 331.772 174.105 332.668 173.604 332.668C173.024 332.668 171.575 330.929 171.575 330.481C171.575 330.191 172.076 330.086 172.313 330.033C173.446 329.717 174.606 329.295 175.607 328.662C177.294 327.634 178.48 325.763 178.928 323.865C178.981 323.628 179.165 322.785 179.165 322.574C179.165 322.231 178.876 321.968 178.533 321.968H173.183C172.102 321.968 170.995 322.02 169.888 322.02C169.203 322.02 169.176 321.625 169.176 320.676C169.176 319.464 169.255 319.174 169.835 319.174C170.969 319.174 172.076 319.253 173.183 319.253ZM176.767 312.348H182.434C183.567 312.348 184.7 312.295 185.86 312.295C186.572 312.295 186.545 312.637 186.545 313.929C186.545 314.746 186.572 315.115 185.834 315.115C184.727 315.115 183.593 315.062 182.46 315.062H176.714C175.581 315.062 174.448 315.115 173.341 315.115C172.55 315.115 172.629 314.693 172.629 313.692C172.629 312.585 172.655 312.295 173.341 312.295C174.474 312.295 175.607 312.348 176.767 312.348Z" fill="black"/>
</svg>
