<svg width="365" height="65" viewBox="0 0 365 65" fill="none" xmlns="http://www.w3.org/2000/svg">
<g clip-path="url(#clip0_136_105)">
<path d="M112.754 17.4051C107.463 17.4051 103.683 19.772 101.888 22.0482V18.2249H90.0771V63.7422H102.172V36.9779C102.172 30.97 104.912 27.4196 110.487 27.4196C115.4 27.4196 118.046 29.9688 118.046 37.0696V63.7431H130.047V35.2495C130.047 21.7763 122.298 17.407 112.755 17.407L112.754 17.4051Z" fill="#E73A10"/>
<path d="M161.321 17.405C148.375 17.405 140.911 24.5058 140.911 38.1613V43.6233C140.911 56.3684 147.62 64.561 161.321 64.561C175.022 64.561 181.731 56.0945 181.731 43.6233V38.1613C181.731 24.5058 174.455 17.405 161.321 17.405ZM169.73 43.2588C169.73 49.8136 167.935 54.7287 161.321 54.7287C154.707 54.7287 152.912 49.8126 152.912 43.2588V38.5249C152.912 31.2419 155.368 27.2363 161.321 27.2363C167.274 27.2363 169.73 31.2419 169.73 38.5249V43.2588Z" fill="#E73A10"/>
<path d="M219.714 20.592C217.068 18.4073 213.666 17.4062 209.604 17.4062C198.359 17.4062 190.895 24.5069 190.895 37.7979V43.9881C190.895 56.0956 197.226 64.5621 209.604 64.5621C214.044 64.5621 217.257 63.288 219.714 61.1024V63.7423H231.714V0.92749L219.714 7.41962V20.592ZM219.714 43.2599C219.714 49.8147 218.107 54.7299 211.304 54.7299C204.502 54.7299 202.895 49.8138 202.895 43.2599V38.5261C202.895 31.2431 205.352 27.2374 211.304 27.2374C217.257 27.2374 219.714 30.8785 219.714 37.524V43.2589V43.2599Z" fill="#E73A10"/>
<path d="M261.574 17.405C248.628 17.405 241.164 24.5058 241.164 38.1613V43.6233C241.164 56.3684 247.873 64.561 261.574 64.561C275.275 64.561 281.984 56.0945 281.984 43.6233V38.1613C281.984 24.5058 274.708 17.405 261.574 17.405ZM269.983 43.2588C269.983 49.8136 268.188 54.7287 261.574 54.7287C254.959 54.7287 253.164 49.8126 253.164 43.2588V38.5249C253.164 31.2419 255.621 27.2363 261.574 27.2363C267.526 27.2363 269.983 31.2419 269.983 38.5249V43.2588Z" fill="#E73A10"/>
<path d="M307.871 8.21033H295.871V18.2239H289.823V28.0561H295.871V48.9031C295.871 60.647 300.595 63.7421 312.029 63.7421H317.131V53.5462H313.257C308.816 53.5462 307.871 51.6346 307.871 47.083V28.0571H317.131V18.2249H307.871V8.21129V8.21033Z" fill="#E73A10"/>
<path d="M55.6559 29.1159C53.4324 33.8613 48.4778 37.1638 42.7224 37.1638H28.5386V23.4986C28.5386 17.9536 31.9664 13.1802 36.8919 11.038C34.251 10.2549 31.4458 9.83337 28.5386 9.83337C12.8721 9.83337 0.171936 22.0692 0.171936 37.1638C0.171936 52.2584 12.8721 64.4942 28.5386 64.4942C44.2051 64.4942 56.9053 52.2584 56.9053 37.1638C56.9053 34.3628 56.4688 31.6603 55.6559 29.1159Z" fill="#E73A10"/>
<path d="M36.8919 29.1158C36.8919 29.1158 36.5796 14.7166 45.5616 6.36108C47.4317 4.6211 50.1357 2.57344 53.93 1.54142C58.5401 0.288515 65.6601 0.26826 66.2958 3.09524C67.0606 6.49322 54.3795 6.89542 55.6729 10.8605C56.8823 14.5691 63.0982 8.1869 64.0072 12.5224C64.4908 14.8305 55.8952 18.8361 55.8952 18.8361L36.8919 29.1158Z" fill="#E73A10"/>
<path d="M112.754 17.4051C107.463 17.4051 103.683 19.772 101.888 22.0482V18.2249H90.0771V63.7422H102.172V36.9779C102.172 30.97 104.912 27.4196 110.487 27.4196C115.4 27.4196 118.046 29.9688 118.046 37.0696V63.7431H130.047V35.2495C130.047 21.7763 122.298 17.407 112.755 17.407L112.754 17.4051Z" fill="#956134"/>
<path d="M161.321 17.405C148.375 17.405 140.911 24.5058 140.911 38.1613V43.6233C140.911 56.3684 147.62 64.561 161.321 64.561C175.022 64.561 181.731 56.0945 181.731 43.6233V38.1613C181.731 24.5058 174.455 17.405 161.321 17.405ZM169.73 43.2588C169.73 49.8136 167.935 54.7287 161.321 54.7287C154.707 54.7287 152.912 49.8126 152.912 43.2588V38.5249C152.912 31.2419 155.368 27.2363 161.321 27.2363C167.274 27.2363 169.73 31.2419 169.73 38.5249V43.2588Z" fill="black"/>
<path d="M219.714 20.592C217.068 18.4073 213.666 17.4062 209.604 17.4062C198.359 17.4062 190.895 24.5069 190.895 37.7979V43.9881C190.895 56.0956 197.226 64.5621 209.604 64.5621C214.044 64.5621 217.257 63.288 219.714 61.1024V63.7423H231.714V0.92749L219.714 7.41962V20.592ZM219.714 43.2599C219.714 49.8147 218.107 54.7299 211.304 54.7299C204.502 54.7299 202.895 49.8138 202.895 43.2599V38.5261C202.895 31.2431 205.352 27.2374 211.304 27.2374C217.257 27.2374 219.714 30.8785 219.714 37.524V43.2589V43.2599Z" fill="black"/>
<path d="M261.574 17.405C248.628 17.405 241.164 24.5058 241.164 38.1613V43.6233C241.164 56.3684 247.873 64.561 261.574 64.561C275.275 64.561 281.984 56.0945 281.984 43.6233V38.1613C281.984 24.5058 274.708 17.405 261.574 17.405ZM269.983 43.2588C269.983 49.8136 268.188 54.7287 261.574 54.7287C254.959 54.7287 253.164 49.8126 253.164 43.2588V38.5249C253.164 31.2419 255.621 27.2363 261.574 27.2363C267.526 27.2363 269.983 31.2419 269.983 38.5249V43.2588Z" fill="black"/>
<path d="M317.131 53.5461H313.257C308.816 53.5461 307.871 51.6345 307.871 47.0829V28.057H317.131V18.2247H307.871V8.21118H295.871V18.2247H289.823V28.057H295.871V48.9039C295.871 60.6478 300.595 63.7429 312.029 63.7429H318.715C318.715 60.1945 318.161 56.7705 317.131 53.5471V53.5461Z" fill="black"/>
<path d="M356.847 51.8108C356.985 51.8918 357.123 51.9738 357.26 52.0558C357.123 51.9728 356.985 51.8908 356.847 51.8108Z" fill="#956134"/>
<path d="M358.093 52.572C358.193 52.6356 358.292 52.6993 358.392 52.7639C358.293 52.6993 358.193 52.6356 358.093 52.572Z" fill="#956134"/>
<path d="M358.633 52.9221C358.723 52.9819 358.813 53.0427 358.903 53.1025C358.813 53.0417 358.723 52.9819 358.633 52.9221Z" fill="#956134"/>
<path d="M355.738 51.1902C355.861 51.2567 355.984 51.3233 356.106 51.3908C355.984 51.3233 355.86 51.2567 355.738 51.1902Z" fill="#956134"/>
<path d="M361.355 54.9111C361.416 54.9601 361.477 55.009 361.537 55.0589C361.476 55.01 361.416 54.9601 361.355 54.9111Z" fill="#956134"/>
<path d="M363.833 57.091C363.31 56.5885 362.777 56.1043 362.231 55.6384C362.235 55.6413 362.239 55.6452 362.243 55.6481C360.001 53.7277 357.574 52.116 355.022 50.8149C353.227 53.2725 351.62 54.7289 346.613 54.7289C339.904 54.7289 337.825 50.1774 337.731 43.8955H364.661V38.7064C364.661 24.8696 358.519 17.4042 345.196 17.4042C332.912 17.4042 325.731 24.0497 325.731 37.7959V43.9862C325.731 55.7301 332.535 64.5602 346.709 64.5602C355.052 64.5602 360.484 62.4546 363.81 57.1305L363.835 57.09L363.833 57.091ZM337.731 35.6123C338.203 30.4232 340.471 27.2374 345.29 27.2374C349.825 27.2374 352.282 29.695 352.566 35.6123H337.732H337.731Z" fill="black"/>
<path d="M359.837 53.7568C359.926 53.8205 360.014 53.8842 360.103 53.9497C360.015 53.8851 359.926 53.8215 359.837 53.7568Z" fill="#956134"/>
<path d="M357.878 52.4363C357.95 52.4814 358.02 52.5265 358.091 52.5725C358.02 52.5274 357.949 52.4814 357.878 52.4363Z" fill="#956134"/>
<path d="M361.538 55.0594C361.771 55.2495 362.002 55.4414 362.233 55.6382C362.003 55.4414 361.771 55.2495 361.538 55.0594Z" fill="#956134"/>
<path d="M359.413 53.4559C359.555 53.5552 359.696 53.6555 359.837 53.7568C359.695 53.6555 359.554 53.5552 359.413 53.4559Z" fill="#956134"/>
<path d="M357.26 52.0562C357.303 52.0821 357.346 52.1071 357.389 52.1339C357.346 52.108 357.303 52.0821 357.26 52.0562Z" fill="#956134"/>
<path d="M358.392 52.7651C358.472 52.8172 358.552 52.8703 358.632 52.9233C358.552 52.8703 358.472 52.8182 358.392 52.7651Z" fill="#956134"/>
<path d="M360.104 53.9497C360.197 54.0172 360.288 54.0857 360.379 54.1542C360.288 54.0857 360.196 54.0172 360.104 53.9497Z" fill="#956134"/>
<path d="M358.901 53.1035C358.983 53.1595 359.067 53.2154 359.149 53.2713C359.067 53.2144 358.983 53.1595 358.901 53.1035Z" fill="#956134"/>
<path d="M355.564 51.0974C355.622 51.1281 355.679 51.1588 355.737 51.1905C355.679 51.1598 355.622 51.1281 355.564 51.0974Z" fill="#956134"/>
<path d="M112.754 17.4051C107.463 17.4051 103.683 19.772 101.888 22.0482V18.2249H90.0771V63.7422H102.172V36.9779C102.172 30.97 104.912 27.4196 110.487 27.4196C115.4 27.4196 118.046 29.9688 118.046 37.0696V63.7431H130.047V35.2495C130.047 21.7763 122.298 17.407 112.755 17.407L112.754 17.4051Z" fill="black"/>
</g>
<defs>
<clipPath id="clip0_136_105">
<rect width="364.489" height="63.8275" fill="white" transform="translate(0.171875 0.733643)"/>
</clipPath>
</defs>
</svg>
